<?xml version="1.0" encoding="utf-8"?>
<!-- Generator: Adobe Illustrator 21.1.0, SVG Export Plug-In . SVG Version: 6.00 Build 0)  -->
<svg version="1.1" id="Layer_1" xmlns="http://www.w3.org/2000/svg" xmlns:xlink="http://www.w3.org/1999/xlink" x="0px" y="0px"
	 viewBox="0 0 60 60" style="enable-background:new 0 0 60 60;" xml:space="preserve">
<style type="text/css">
	.st0{fill:none;stroke:#3292A6;stroke-width:3;stroke-miterlimit:10;}
	.st1{fill:#3292A6;}
</style>
<circle class="st0" cx="30.8" cy="29.8" r="26.8"/>
<g id="Logo_x5F_01_2_">
	<g id="Logo_x5F_01">
		<path id="Squirrel" class="st1" d="M46.6,33.6c-0.2-0.9-1-1.5-2-1.4c-0.4,0.1-0.8,0.3-1.1,0.6c0,0,0,0,0,0
			c-0.3,0.4-0.7,0.8-1.1,1.2c0,0,0,0,0,0c-0.2,0.2-0.6,0.4-0.9,0.5c-0.6,0.1-1.3-0.2-1.6-0.6c0,0,0,0,0,0c0,0,0,0,0,0
			c-0.9-1.1-1.9-2-3.1-2.7l0,0c2.4,1.4,5.3,1,7.9,0.4c0.4-2.5,0.3-5.1-1.4-7.3l0,0c-0.6-2.1-1.9-4.1-3.9-5.6c0,0.7,0,1.4-0.1,2.1
			c-0.6-0.9-1.3-1.7-2.1-2.4c0,4.8-3.1,8.9-7.5,10.7c-0.1,0-0.1,0.1-0.2,0.1c-3.7,1.5-6.4,4.9-6.4,9c0,1.9,0.5,3.6,1.4,5.1
			c-1.3-1.8-2.1-3.9-2.2-6.2c-0.1-4.3,2.3-8,6-10l0.1-0.1c3.2-1.7,5.4-4.9,5.4-8.6c0-5.5-4.7-9.9-10.4-9.9c-5.7,0-10.4,4.4-10.4,9.9
			c0,1.5,0.3,2.8,0.9,4.1c0-0.3-0.1-0.5-0.1-0.8c0-2.7,2.3-4.9,5.2-4.9c2.9,0,5.2,2.2,5.2,4.9c0,2-1.2,3.7-3,4.5c0,0-0.1,0-0.1,0
			c-0.8,0.3-1.5,0.7-2.2,1.2c-3.5,2.4-5.9,6.2-5.9,10.6C13,45.1,19.1,51,26.8,51.1c1.1,0,2.2-0.1,3.2-0.3c0,0,0.1,0,0.1,0
			c2.3-0.5,4.6-0.4,6.7,0.1c0.4,0.1,0.8,0.2,1.3,0.2c0.5,0.1,1,0.1,1.6,0c0,0,0.1,0,0.1,0c0.3,0,0.5-0.1,0.8-0.2
			c0.2-0.1,0.5-0.2,0.8-0.2c0.1-0.2,0.2-0.5,0.2-0.8c0-0.3-0.1-0.6-0.3-0.9c-0.3-0.5-0.8-0.7-1.5-0.7c-0.6,0-1.2,0.1-1.7,0.2
			c-0.3,0.1-0.7,0.2-1,0.3c0,0-0.1,0-0.2,0c-0.3,0-0.5-0.2-0.5-0.5c0-0.2,0.1-0.3,0.2-0.4c1.5-1.2,2.4-3,2.4-5
			c0-3.6-3.1-6.6-6.9-6.6l0,0c2.3-0.4,4.6,0.4,6.2,2c0,0,0,0,0.1,0.1c0.5,0.5,1.3,0.8,2.1,0.7c0.6-0.1,1.1-0.4,1.4-0.7c0,0,0,0,0,0
			c0.1-0.1,0.1-0.1,0.2-0.2c1.1-1.1,2.4-2.1,3.8-2.8c0,0,0,0,0,0C46.4,35,46.8,34.3,46.6,33.6z"/>
		<g id="Acorn">
			<path class="st1" d="M48.6,31.9c-0.2-0.6-1.1-0.9-2.1-0.6c0-0.1,0-0.2,0-0.2c0-0.2,0.5-0.9,0.4-1.1c-0.1-0.1-0.4,0.1-0.5,0.2
				c-0.2,0.2-0.3,0.4-0.3,0.7c0,0.2,0,0.3,0.1,0.5c-0.4,0.2-0.8,0.4-1,0.6c0.4,0,0.7,0.2,1,0.4c0.1-0.1,0.3-0.1,0.4-0.2
				c0.8-0.3,1.6-0.2,2,0.2C48.6,32.2,48.6,32,48.6,31.9z"/>
			<path class="st1" d="M46.6,32.4c-0.1,0-0.2,0.1-0.3,0.1c0.3,0.3,0.5,0.6,0.5,1c0.1,0.5,0,0.9-0.3,1.3c0.2,0.1,0.4,0.1,0.6,0.1
				c0.1,0,0.3,0.1,0.5,0.1c0.1-0.1,0.2-0.3,0.3-0.4c0.5-0.4,0.7-1.3,0.4-2.3C47.9,32.2,47.3,32.2,46.6,32.4z"/>
		</g>
	</g>
</g>
</svg>
